FILE "Revenge of the Ninja (1994)(Renovation)(US).img" BINARY
  TRACK 01 MODE1/2352
    INDEX 01 00:00:00
  TRACK 02 AUDIO
    PREGAP 00:02:00
    INDEX 01 30:46:71
  TRACK 03 AUDIO
    INDEX 00 31:05:03
    INDEX 01 31:07:05
  TRACK 04 AUDIO
    INDEX 00 31:14:58
    INDEX 01 31:16:60
  TRACK 05 AUDIO
    INDEX 00 33:46:67
    INDEX 01 33:48:67
